<svg xmlns="http://www.w3.org/2000/svg" version="1.1" xmlns:xlink="http://www.w3.org/1999/xlink" xmlns:svgjs="http://svgjs.dev/svgjs" width="1000" height="1000" viewBox="0 0 1000 1000"><rect width="1000" height="1000" fill="#333366"></rect><g transform="matrix(0.7,0,0,0.7,149.57575757575756,282.1265587044535)"><svg viewBox="0 0 396 247" data-background-color="#333366" preserveAspectRatio="xMidYMid meet" height="623" width="1000" xmlns="http://www.w3.org/2000/svg" xmlns:xlink="http://www.w3.org/1999/xlink"><g id="tight-bounds" transform="matrix(1,0,0,1,0.2400000000000091,-0.09999999999999432)"><svg viewBox="0 0 395.52 247.2" height="247.2" width="395.52"><g><svg></svg></g><g><svg viewBox="0 0 395.52 247.2" height="247.2" width="395.52"><g transform="matrix(1,0,0,1,75.54432,84.97944799350122)"><svg viewBox="0 0 244.43135999999998 77.24110401299755" height="77.24110401299755" width="244.43135999999998"><g><svg viewBox="0 0 244.43135999999998 77.24110401299755" height="77.24110401299755" width="244.43135999999998"><g><svg viewBox="0 0 244.43135999999998 77.24110401299755" height="77.24110401299755" width="244.43135999999998"><g><svg viewBox="0 0 244.43135999999998 77.24110401299755" height="77.24110401299755" width="244.43135999999998"><g id="textblocktransform"><svg viewBox="0 0 244.43135999999998 77.24110401299755" height="77.24110401299755" width="244.43135999999998" id="textblock"><g><svg viewBox="0 0 244.43135999999998 77.24110401299755" height="77.24110401299755" width="244.43135999999998"><g transform="matrix(1,0,0,1,0,0)"><svg width="244.43135999999998" viewBox="2.27 -37.5 120.2 37.99" height="77.24110401299755" data-palette-color="#ffffff"><path d="M14.38 0.49L14.38 0.49Q9.01 0.49 5.64-3.04 2.27-6.57 2.27-12.48L2.27-12.48 2.27-13.31Q2.27-17.24 3.77-20.32 5.27-23.41 7.97-25.16 10.67-26.9 13.82-26.9L13.82-26.9Q18.97-26.9 21.83-23.51 24.68-20.12 24.68-13.79L24.68-13.79 24.68-11.91 6.79-11.91Q6.88-8.01 9.07-5.6 11.25-3.2 14.62-3.2L14.62-3.2Q17.02-3.2 18.68-4.17 20.34-5.15 21.58-6.76L21.58-6.76 24.34-4.61Q21.02 0.49 14.38 0.49ZM13.82-23.19L13.82-23.19Q11.08-23.19 9.23-21.2 7.37-19.21 6.93-15.63L6.93-15.63 20.17-15.63 20.17-15.97Q19.97-19.41 18.31-21.3 16.65-23.19 13.82-23.19ZM29.9-26.42L34.18-26.42 34.32-23.1Q37.35-26.9 42.23-26.9L42.23-26.9Q50.61-26.9 50.68-17.46L50.68-17.46 50.68 0 46.16 0 46.16-17.48Q46.14-20.34 44.86-21.7 43.58-23.07 40.87-23.07L40.87-23.07Q38.67-23.07 37.01-21.9 35.35-20.73 34.42-18.82L34.42-18.82 34.42 0 29.9 0 29.9-26.42ZM59.1-32.81L63.62-32.81 63.62-26.42 68.55-26.42 68.55-22.92 63.62-22.92 63.62-6.54Q63.62-4.96 64.28-4.16 64.94-3.37 66.52-3.37L66.52-3.37Q67.3-3.37 68.67-3.66L68.67-3.66 68.67 0Q66.89 0.49 65.2 0.49L65.2 0.49Q62.18 0.49 60.64-1.34 59.1-3.17 59.1-6.54L59.1-6.54 59.1-22.92 54.29-22.92 54.29-26.42 59.1-26.42 59.1-32.81ZM90.4 0L81.19-12.23 78.36-9.28 78.36 0 73.85 0 73.85-37.5 78.36-37.5 78.36-14.82 80.78-17.72 89.01-26.42 94.5-26.42 84.22-15.38 95.7 0 90.4 0ZM104.07-26.42L104.07 0 99.55 0 99.55-26.42 104.07-26.42ZM99.18-33.42L99.18-33.42Q99.18-34.52 99.86-35.28 100.53-36.04 101.85-36.04 103.16-36.04 103.85-35.28 104.53-34.52 104.53-33.42 104.53-32.32 103.85-31.59 103.16-30.86 101.85-30.86 100.53-30.86 99.86-31.59 99.18-32.32 99.18-33.42ZM112.9-32.81L117.42-32.81 117.42-26.42 122.35-26.42 122.35-22.92 117.42-22.92 117.42-6.54Q117.42-4.96 118.08-4.16 118.74-3.37 120.32-3.37L120.32-3.37Q121.11-3.37 122.47-3.66L122.47-3.66 122.47 0Q120.69 0.49 119.01 0.49L119.01 0.49Q115.98 0.49 114.44-1.34 112.9-3.17 112.9-6.54L112.9-6.54 112.9-22.92 108.09-22.92 108.09-26.42 112.9-26.42 112.9-32.81Z" opacity="1" transform="matrix(1,0,0,1,0,0)" fill="#ffffff" class="undefined-text-0" data-fill-palette-color="primary" id="text-0"></path></svg></g></svg></g></svg></g></svg></g></svg></g></svg></g></svg></g><path d="M210.884 78.979L210.884 23.366 10.417 23.366 10.417 223.834 210.884 223.834 210.884 168.221 203.919 168.221 203.919 216.868 17.383 216.868 17.383 30.332 203.919 30.332 203.919 78.979Z" fill="#ffffff" stroke="transparent" data-fill-palette-color="primary"></path></svg></g><defs></defs></svg><rect width="395.52" height="247.2" fill="none" stroke="none" visibility="hidden"></rect></g></svg></g></svg>